<svg width="19" height="30" viewBox="0 0 19 30" fill="none" xmlns="http://www.w3.org/2000/svg">
<path d="M18.4615 26.5385V5.76923C18.4615 3.80769 16.9615 2.30769 15 2.30769L13.8462 2.30769V1.15385C13.8462 0.461538 13.3846 0 12.6923 0L5.76923 0C5.07693 0 4.61539 0.461538 4.61539 1.15385V2.30769H3.46154C1.5 2.30769 0 3.80769 0 5.76923V26.5385C0 28.5 1.5 30 3.46154 30H15C16.9615 30 18.4615 28.5 18.4615 26.5385ZM8.07693 25.3846L9.23077 17.3077H4.61539L10.3846 8.07692L9.23077 16.1538H13.8462L8.07693 25.3846Z" fill="#646464"/>
</svg>
