<svg width="25" height="25" viewBox="0 0 25 25" fill="none" xmlns="http://www.w3.org/2000/svg">
<g clip-path="url(#clip0_79_220)">
<path d="M12.5003 0C8.4125 0 5.0625 3.34 5.0625 7.4165C5.0625 8.996 5.567 10.464 6.42075 11.6705L11.5925 20.6113C12.3168 21.5575 12.7983 21.3778 13.4005 20.5613L19.105 10.8538C19.22 10.6453 19.3105 10.4233 19.3893 10.1965C19.7512 9.31437 19.9374 8.37002 19.9373 7.4165C19.9375 3.34 16.5885 0 12.5003 0ZM12.5003 3.475C14.7018 3.475 16.4523 5.2215 16.4523 7.4165C16.4523 9.6115 14.7018 11.3573 12.5003 11.3573C10.299 11.3573 8.54775 9.61175 8.54775 7.4165C8.54775 5.2215 10.299 3.47525 12.5003 3.47525V3.475Z" fill="#656C74"/>
<path d="M17.2282 12.2271L17.2162 12.2586C17.22 12.2491 17.223 12.2393 17.2267 12.2298L17.2282 12.2271Z" fill="#656C74"/>
<path d="M8.5015 17.2643C4.97 17.7633 2.5 18.957 2.5 20.7143C2.5 23.0813 6.627 25 12.5 25C18.373 25 22.5 23.0813 22.5 20.7143C22.5 18.957 20.0303 17.7633 16.499 17.2643L16.0098 18.0973C18.6712 18.4665 20.5 19.2425 20.5 20.143C20.5 21.4055 16.9183 22.4288 12.5 22.4288C8.08175 22.4288 4.5 21.4055 4.5 20.143C4.49975 19.2455 6.3165 18.4703 8.98625 18.0995C8.825 17.821 8.66275 17.543 8.50125 17.2643H8.5015Z" fill="#656C74"/>
</g>
<defs>
<clipPath id="clip0_79_220">
<rect width="25" height="25" fill="white"/>
</clipPath>
</defs>
</svg>
