<svg width="27" height="26" viewBox="0 0 27 26" fill="none" xmlns="http://www.w3.org/2000/svg">
<path d="M26.0098 12.3332L13.9424 0.274634C13.8555 0.187576 13.7523 0.118507 13.6387 0.0713821C13.5251 0.0242568 13.4033 0 13.2803 0C13.1573 0 13.0355 0.0242568 12.9219 0.0713821C12.8083 0.118507 12.7051 0.187576 12.6182 0.274634L0.550781 12.3332C0.199219 12.6848 0 13.1623 0 13.6604C0 14.6946 0.84082 15.5354 1.875 15.5354H3.14648V24.1399C3.14648 24.6584 3.56543 25.0774 4.08398 25.0774H11.4053V18.5149H14.6865V25.0774H22.4766C22.9951 25.0774 23.4141 24.6584 23.4141 24.1399V15.5354H24.6855C25.1836 15.5354 25.6611 15.3391 26.0127 14.9846C26.7422 14.2522 26.7422 13.0656 26.0098 12.3332Z" fill="#646464"/>
</svg>
