<svg width="100" height="100" viewBox="0 0 100 100" fill="none" xmlns="http://www.w3.org/2000/svg">
<g clip-path="url(#clip0_60_6)">
<path d="M53.124 40.5232L51.2501 44.1667H55.3472H88.8876C88.9453 44.1667 89.0016 44.1844 89.049 44.2172C89.0957 44.2496 89.1315 44.2953 89.1519 44.3483C89.1707 44.4007 89.1734 44.4575 89.1595 44.5114C89.1453 44.5664 89.1147 44.6156 89.0717 44.6526L89.0687 44.6552L48.366 79.8079L27.9581 97.4325C27.9077 97.476 27.8433 97.5 27.7767 97.5L27.7711 97.5C27.7238 97.5002 27.6773 97.4881 27.636 97.465C27.5948 97.442 27.5602 97.4087 27.5356 97.3683C27.511 97.328 27.4971 97.282 27.4955 97.2347C27.4938 97.1875 27.5043 97.1406 27.5261 97.0987L27.5287 97.0935L46.876 59.4768L48.7499 55.8333H44.6528H11.1122C11.0555 55.8333 11.0002 55.816 10.9537 55.7836C10.9071 55.7513 10.8716 55.7055 10.8519 55.6523C10.8321 55.5992 10.8291 55.5413 10.8432 55.4865C10.8573 55.4316 10.8879 55.3823 10.9308 55.3453L10.9313 55.3448L51.634 20.1921L51.6341 20.1921L72.0419 2.56751C72.042 2.56741 72.0423 2.56718 72.0424 2.56709C72.0927 2.52376 72.1568 2.50004 72.2233 2.50002L72.229 2.5C72.2762 2.49987 72.3227 2.51193 72.364 2.53499C72.4052 2.55806 72.4398 2.59138 72.4644 2.63172C72.4891 2.67207 72.5029 2.71807 72.5045 2.76529C72.5062 2.8125 72.4957 2.85936 72.474 2.90135L72.4713 2.90657L53.124 40.5232Z" fill="#E8A646" stroke="#E8A646" stroke-width="5"/>
</g>
<defs>
<clipPath id="clip0_60_6">
<rect width="100" height="100" fill="white"/>
</clipPath>
</defs>
</svg>
