<svg width="183" height="134" viewBox="0 0 183 134" fill="none" xmlns="http://www.w3.org/2000/svg">
<path d="M25.6836 124H19.8242V111.812H8.39844V124H2.53906V95.5625H8.39844V107.086H19.8242V95.5625H25.6836V124ZM40.1758 124.391C37.0768 124.391 34.5508 123.44 32.5977 121.539C30.6576 119.638 29.6875 117.105 29.6875 113.941V113.395C29.6875 111.272 30.0977 109.378 30.918 107.711C31.7383 106.031 32.8971 104.742 34.3945 103.844C35.9049 102.932 37.6237 102.477 39.5508 102.477C42.4414 102.477 44.7135 103.388 46.3672 105.211C48.0339 107.034 48.8672 109.618 48.8672 112.965V115.27H35.4102C35.5924 116.65 36.1393 117.757 37.0508 118.59C37.9753 119.423 39.1406 119.84 40.5469 119.84C42.7214 119.84 44.4206 119.052 45.6445 117.477L48.418 120.582C47.5716 121.78 46.4258 122.717 44.9805 123.395C43.5352 124.059 41.9336 124.391 40.1758 124.391ZM39.5312 107.047C38.4115 107.047 37.5 107.424 36.7969 108.18C36.1068 108.935 35.6641 110.016 35.4688 111.422H43.3203V110.973C43.2943 109.723 42.9557 108.759 42.3047 108.082C41.6536 107.392 40.7292 107.047 39.5312 107.047ZM59.707 116.012L63.6133 102.867H69.668L61.1719 127.281L60.7031 128.395C59.4401 131.155 57.3568 132.535 54.4531 132.535C53.6328 132.535 52.7995 132.411 51.9531 132.164V127.887L52.8125 127.906C53.8802 127.906 54.6745 127.743 55.1953 127.418C55.7292 127.092 56.1458 126.552 56.4453 125.797L57.1094 124.059L49.707 102.867H55.7812L59.707 116.012ZM92.7344 116.949L99.1797 95.5625H105.703L95.8008 124H89.6875L79.8242 95.5625H86.3281L92.7344 116.949ZM106.25 113.238C106.25 111.142 106.654 109.273 107.461 107.633C108.268 105.992 109.427 104.723 110.938 103.824C112.461 102.926 114.225 102.477 116.23 102.477C119.082 102.477 121.406 103.349 123.203 105.094C125.013 106.839 126.022 109.208 126.23 112.203L126.27 113.648C126.27 116.891 125.365 119.495 123.555 121.461C121.745 123.414 119.316 124.391 116.27 124.391C113.223 124.391 110.788 123.414 108.965 121.461C107.155 119.508 106.25 116.852 106.25 113.492V113.238ZM111.895 113.648C111.895 115.654 112.272 117.19 113.027 118.258C113.783 119.312 114.863 119.84 116.27 119.84C117.637 119.84 118.704 119.319 119.473 118.277C120.241 117.223 120.625 115.543 120.625 113.238C120.625 111.272 120.241 109.749 119.473 108.668C118.704 107.587 117.624 107.047 116.23 107.047C114.85 107.047 113.783 107.587 113.027 108.668C112.272 109.736 111.895 111.396 111.895 113.648ZM135.703 124H130.039V94H135.703V124ZM147.129 97.6719V102.867H150.742V107.008H147.129V117.555C147.129 118.336 147.279 118.896 147.578 119.234C147.878 119.573 148.451 119.742 149.297 119.742C149.922 119.742 150.475 119.697 150.957 119.605V123.883C149.85 124.221 148.711 124.391 147.539 124.391C143.581 124.391 141.562 122.392 141.484 118.395V107.008H138.398V102.867H141.484V97.6719H147.129ZM160.371 119.449H170.703V124H153.164V120.562L163.105 107.438H153.457V102.867H170.391V106.207L160.371 119.449ZM179.98 115.27H175.293L174.629 95.5625H180.645L179.98 115.27ZM177.637 118.355C178.587 118.355 179.349 118.635 179.922 119.195C180.508 119.755 180.801 120.471 180.801 121.344C180.801 122.203 180.508 122.913 179.922 123.473C179.349 124.033 178.587 124.312 177.637 124.312C176.699 124.312 175.938 124.033 175.352 123.473C174.779 122.913 174.492 122.203 174.492 121.344C174.492 120.484 174.779 119.775 175.352 119.215C175.938 118.642 176.699 118.355 177.637 118.355Z" fill="white"/>
<g clip-path="url(#clip0_89_52)">
<mask id="path-2-inside-1_89_52" fill="white">
<path d="M116.556 27.824C116.429 27.4843 116.202 27.1914 115.904 26.9846C115.606 26.7778 115.252 26.6669 114.889 26.6667H93.4222L105.804 2.59201C105.945 2.32093 106.013 2.01828 106.002 1.71327C105.991 1.40825 105.902 1.11117 105.743 0.850662C105.584 0.590158 105.36 0.375029 105.094 0.226028C104.828 0.077028 104.527 -0.00081578 104.222 6.44659e-06C103.796 0.000183325 103.384 0.153496 103.061 0.432006L90 11.712L63.9502 34.2098C63.6757 34.4468 63.4802 34.762 63.39 35.1133C63.2997 35.4645 63.3191 35.835 63.4454 36.1749C63.5718 36.5148 63.7991 36.808 64.0968 37.0151C64.3945 37.2221 64.7485 37.3332 65.1111 37.3333H86.5778L74.1956 61.408C74.0553 61.6791 73.9873 61.9817 73.9981 62.2867C74.0089 62.5918 74.0981 62.8888 74.2571 63.1494C74.4161 63.4099 74.6396 63.625 74.906 63.774C75.1723 63.923 75.4726 64.0008 75.7778 64C76.204 63.9998 76.616 63.8465 76.9387 63.568L90 52.288L116.05 29.7902C116.325 29.5534 116.521 29.2381 116.611 28.8866C116.702 28.5351 116.683 28.1643 116.556 27.824Z"/>
</mask>
<path d="M116.556 27.824C116.429 27.4843 116.202 27.1914 115.904 26.9846C115.606 26.7778 115.252 26.6669 114.889 26.6667H93.4222L105.804 2.59201C105.945 2.32093 106.013 2.01828 106.002 1.71327C105.991 1.40825 105.902 1.11117 105.743 0.850662C105.584 0.590158 105.36 0.375029 105.094 0.226028C104.828 0.077028 104.527 -0.00081578 104.222 6.44659e-06C103.796 0.000183325 103.384 0.153496 103.061 0.432006L90 11.712L63.9502 34.2098C63.6757 34.4468 63.4802 34.762 63.39 35.1133C63.2997 35.4645 63.3191 35.835 63.4454 36.1749C63.5718 36.5148 63.7991 36.808 64.0968 37.0151C64.3945 37.2221 64.7485 37.3332 65.1111 37.3333H86.5778L74.1956 61.408C74.0553 61.6791 73.9873 61.9817 73.9981 62.2867C74.0089 62.5918 74.0981 62.8888 74.2571 63.1494C74.4161 63.4099 74.6396 63.625 74.906 63.774C75.1723 63.923 75.4726 64.0008 75.7778 64C76.204 63.9998 76.616 63.8465 76.9387 63.568L90 52.288L116.05 29.7902C116.325 29.5534 116.521 29.2381 116.611 28.8866C116.702 28.5351 116.683 28.1643 116.556 27.824Z" fill="#E8A646"/>
<path d="M114.889 26.6667L114.891 21.6667H114.889V26.6667ZM93.4222 26.6667L88.9759 24.3798L85.228 31.6667H93.4222V26.6667ZM105.804 2.59201L101.363 0.294684L101.358 0.305125L105.804 2.59201ZM104.222 6.44659e-06L104.224 5.00002L104.236 4.99999L104.222 6.44659e-06ZM103.061 0.432006L99.7943 -3.35299L99.7933 -3.35214L103.061 0.432006ZM90 11.712L86.7319 7.92786L86.7319 7.92791L90 11.712ZM63.9502 34.2098L67.2173 37.9948L67.2183 37.9939L63.9502 34.2098ZM65.1111 37.3333L65.109 42.3333H65.1111V37.3333ZM86.5778 37.3333L91.0241 39.6202L94.772 32.3333H86.5778V37.3333ZM74.1956 61.408L78.6366 63.7053L78.6419 63.6949L74.1956 61.408ZM75.7778 64L75.7757 59L75.7643 59L75.7778 64ZM76.9387 63.568L80.2057 67.353L80.2067 67.3522L76.9387 63.568ZM90 52.288L93.2681 56.0722L93.2681 56.0721L90 52.288ZM116.05 29.7902L112.788 26.001L112.782 26.0061L116.05 29.7902ZM121.24 26.0725C120.756 24.7792 119.889 23.6643 118.754 22.8769L113.053 31.0922C112.514 30.7185 112.103 30.1894 111.873 29.5755L121.24 26.0725ZM118.754 22.8769C117.62 22.0896 116.272 21.6674 114.891 21.6667L114.886 31.6667C114.231 31.6663 113.591 31.4659 113.053 31.0922L118.754 22.8769ZM114.889 21.6667H93.4222V31.6667H114.889V21.6667ZM97.8686 28.9536L110.251 4.87889L101.358 0.305125L88.9759 24.3798L97.8686 28.9536ZM110.245 4.88932C110.78 3.85508 111.04 2.70039 110.999 1.53666L101.005 1.88988C100.985 1.33617 101.109 0.786774 101.363 0.294691L110.245 4.88932ZM110.999 1.53666C110.958 0.372913 110.617 -0.760569 110.011 -1.75446L101.475 3.45578C101.187 2.9829 101.025 2.4436 101.005 1.88988L110.999 1.53666ZM110.011 -1.75446C109.404 -2.74834 108.551 -3.56913 107.535 -4.13763L102.653 4.58969C102.17 4.31919 101.764 3.92866 101.475 3.45578L110.011 -1.75446ZM107.535 -4.13763C106.519 -4.70612 105.373 -5.00311 104.209 -4.99998L104.236 4.99999C103.682 5.00148 103.137 4.86017 102.653 4.58969L107.535 -4.13763ZM104.22 -4.99999C102.595 -4.99932 101.024 -4.41481 99.7943 -3.35299L106.328 4.21701C105.744 4.72181 104.997 4.99969 104.224 5.00001L104.22 -4.99999ZM99.7933 -3.35214L86.7319 7.92786L93.2681 15.4962L106.329 4.21616L99.7933 -3.35214ZM86.7319 7.92791L60.6821 30.4257L67.2183 37.9939L93.2681 15.4961L86.7319 7.92791ZM60.6831 30.4248C59.6365 31.3282 58.8912 32.5301 58.5472 33.8693L68.2328 36.3572C68.0692 36.9939 67.7149 37.5653 67.2173 37.9948L60.6831 30.4248ZM58.5472 33.8693C58.2032 35.2084 58.277 36.6208 58.7587 37.9168L68.1322 34.433C68.3612 35.0492 68.3963 35.7206 68.2328 36.3572L58.5472 33.8693ZM58.7587 37.9168C59.2403 39.2128 60.1068 40.3305 61.2419 41.1199L66.9516 32.9102C67.4913 33.2855 67.9032 33.8169 68.1322 34.433L58.7587 37.9168ZM61.2419 41.1199C62.377 41.9094 63.7264 42.3328 65.109 42.3333L65.1132 32.3333C65.7705 32.3336 66.412 32.5349 66.9516 32.9102L61.2419 41.1199ZM65.1111 42.3333H86.5778V32.3333H65.1111V42.3333ZM82.1314 35.0465L69.7492 59.1211L78.6419 63.6949L91.0241 39.6202L82.1314 35.0465ZM69.7546 59.1107C69.2196 60.1449 68.9601 61.2996 69.0012 62.4634L78.995 62.1101C79.0146 62.6638 78.8911 63.2132 78.6365 63.7053L69.7546 59.1107ZM69.0012 62.4634C69.0424 63.6271 69.3827 64.7606 69.9894 65.7545L78.5248 60.5442C78.8135 61.0171 78.9754 61.5564 78.995 62.1101L69.0012 62.4634ZM69.9894 65.7545C70.5961 66.7484 71.4487 67.5692 72.4649 68.1376L77.347 59.4103C77.8305 59.6808 78.2361 60.0713 78.5248 60.5442L69.9894 65.7545ZM72.4649 68.1376C73.4812 68.7061 74.6268 69.0031 75.7912 69L75.7643 59C76.3183 58.9985 76.8634 59.1398 77.347 59.4103L72.4649 68.1376ZM75.7799 69C77.4049 68.9993 78.9756 68.4148 80.2057 67.353L73.6716 59.783C74.2564 59.2782 75.0031 59.0003 75.7757 59L75.7799 69ZM80.2067 67.3522L93.2681 56.0722L86.7319 48.5039L73.6706 59.7839L80.2067 67.3522ZM93.2681 56.0721L119.318 33.5743L112.782 26.0061L86.7319 48.5039L93.2681 56.0721ZM119.312 33.5794C120.361 32.6766 121.108 31.4743 121.453 30.1342L111.77 27.6389C111.934 27.0018 112.289 26.4303 112.788 26.001L119.312 33.5794ZM121.453 30.1342C121.799 28.7942 121.725 27.3805 121.244 26.0832L111.869 29.5648C111.64 28.9481 111.605 28.276 111.77 27.6389L121.453 30.1342Z" fill="#E8A646" mask="url(#path-2-inside-1_89_52)"/>
</g>
<defs>
<clipPath id="clip0_89_52">
<rect width="64" height="64" fill="white" transform="translate(58)"/>
</clipPath>
</defs>
</svg>
