<svg width="26" height="29" viewBox="0 0 26 29" fill="none" xmlns="http://www.w3.org/2000/svg">
<path d="M12.918 14.5C16.3698 14.5 19.168 11.7018 19.168 8.25C19.168 4.79822 16.3698 2 12.918 2C9.46627 2 6.66805 4.79822 6.66805 8.25C6.66805 11.7018 9.46627 14.5 12.918 14.5Z" stroke="#646464" stroke-width="2.5"/>
<path d="M19.168 17H19.608C20.5219 17.0003 21.4042 17.3342 22.0892 17.9391C22.7742 18.544 23.2147 19.3782 23.328 20.285L23.8168 24.19C23.8608 24.5418 23.8294 24.8989 23.7248 25.2376C23.6202 25.5764 23.4447 25.889 23.2101 26.1547C22.9754 26.4205 22.6869 26.6333 22.3637 26.779C22.0406 26.9248 21.6901 27.0001 21.3355 27H4.50054C4.14602 27.0001 3.79554 26.9248 3.47235 26.779C3.14917 26.6333 2.86067 26.4205 2.62601 26.1547C2.39136 25.889 2.2159 25.5764 2.1113 25.2376C2.0067 24.8989 1.97533 24.5418 2.01929 24.19L2.50679 20.285C2.62017 19.3778 3.06106 18.5432 3.74658 17.9383C4.4321 17.3333 5.31502 16.9996 6.22929 17H6.66804" stroke="#646464" stroke-width="2.5" stroke-linecap="round" stroke-linejoin="round"/>
</svg>
